ffmpeg version 6.1.1 Copyright (c) 2000-2023 the FFmpeg developers
  built with gcc 13.2.1 (Alpine 13.2.1_git20240309) 20240309
  configuration: --prefix=/usr --disable-librtmp --disable-lzma --disable-static --disable-stripping --enable-avfilter --enable-gpl --enable-ladspa --enable-libaom --enable-libass --enable-libbluray --enable-libdav1d --enable-libdrm --enable-libfontconfig --enable-libfreetype --enable-libfribidi --enable-libharfbuzz --enable-libmp3lame --enable-libopenmpt --enable-libopus --enable-libplacebo --enable-libpulse --enable-librav1e --enable-librist --enable-libsoxr --enable-libsrt --enable-libssh --enable-libtheora --enable-libv4l2 --enable-libvidstab --enable-libvorbis --enable-libvpx --enable-libwebp --enable-libx264 --enable-libx265 --enable-libxcb --enable-libxml2 --enable-libxvid --enable-libzimg --enable-libzmq --enable-lto=auto --enable-lv2 --enable-openssl --enable-pic --enable-postproc --enable-pthreads --enable-shared --enable-vaapi --enable-vdpau --enable-version3 --enable-vulkan --optflags=-O3 --enable-libjxl --enable-libsvtav1 --enable-libvpl
  libavutil      58. 29.100 / 58. 29.100
  libavcodec     60. 31.102 / 60. 31.102
  libavformat    60. 16.100 / 60. 16.100
  libavdevice    60.  3.100 / 60.  3.100
  libavfilter     9. 12.100 /  9. 12.100
  libswscale      7.  5.100 /  7.  5.100
  libswresample   4. 12.100 /  4. 12.100
  libpostproc    57.  3.100 / 57.  3.100
Input #0, mov,mp4,m4a,3gp,3g2,mj2, from 'input.mp4':
  Metadata:
    major_brand     : isom
    minor_version   : 512
    compatible_brands: isomiso2avc1mp41
    encoder         : Lavf59.16.100
  Duration: 00:00:41.59, start: 0.000000, bitrate: 1194 kb/s
  Stream #0:0[0x1](und): Video: h264 (High) (avc1 / 0x31637661), yuv420p(tv, bt709, progressive), 1920x1080 [SAR 1:1 DAR 16:9], 1061 kb/s, 25 fps, 25 tbr, 12800 tbn (default)
    Metadata:
      handler_name    : ISO Media file produced by Google Inc.
      vendor_id       : [0][0][0][0]
  Stream #0:1[0x2](eng): Audio: aac (LC) (mp4a / 0x6134706D), 44100 Hz, stereo, fltp, 127 kb/s (default)
    Metadata:
      handler_name    : ISO Media file produced by Google Inc.
      vendor_id       : [0][0][0][0]
Stream mapping:
  Stream #0:0 -> #0:0 (h264 (native) -> mpeg2video (native))
  Stream #0:1 -> #0:1 (aac (native) -> aac (native))
Press [q] to stop, [?] for help
Output #0, mpegts, to 'udp://[ff06::179]:50623?pkt_size=188':
  Metadata:
    major_brand     : isom
    minor_version   : 512
    compatible_brands: isomiso2avc1mp41
    encoder         : Lavf60.16.100
  Stream #0:0(und): Video: mpeg2video (Main), yuv420p(tv, bt709, progressive), 1920x1080 [SAR 1:1 DAR 16:9], q=2-31, 200 kb/s, 25 fps, 90k tbn (default)
    Metadata:
      handler_name    : ISO Media file produced by Google Inc.
      vendor_id       : [0][0][0][0]
      encoder         : Lavc60.31.102 mpeg2video
    Side data:
      cpb: bitrate max/min/avg: 0/0/200000 buffer size: 0 vbv_delay: N/A
  Stream #0:1(eng): Audio: aac (LC), 44100 Hz, stereo, fltp, 128 kb/s (default)
    Metadata:
      handler_name    : ISO Media file produced by Google Inc.
      vendor_id       : [0][0][0][0]
      encoder         : Lavc60.31.102 aac
frame=    0 fps=0.0 q=0.0 size=       0kB time=00:00:00.02 bitrate=   0.0kbits/s speed=0.875x    [vost#0:0/mpeg2video @ 0x7fb4ab9dc280] Error submitting a packet to the muxer: Operation not permitted
[out#0/mpegts @ 0x7fb4ac4c95c0] Error muxing a packet
[out#0/mpegts @ 0x7fb4ac4c95c0] Error writing trailer: Operation not permitted
[out#0/mpegts @ 0x7fb4ac4c95c0] Error closing file: Operation not permitted
[out#0/mpegts @ 0x7fb4ac4c95c0] video:70kB audio:2kB subtitle:0kB other streams:0kB global headers:0kB muxing overhead: 0.032329%
frame=    1 fps=0.0 q=2.0 Lsize=      73kB time=00:00:00.13 bitrate=4264.1kbits/s speed=1.39x    
[aac @ 0x7fb4a82de8c0] Qavg: 12588.791
Conversion failed!
